<?xml version="1.0" encoding="UTF-8" standalone="no"?>
<svg
   xmlns:dc="http://purl.org/dc/elements/1.1/"
   xmlns:cc="http://creativecommons.org/ns#"
   xmlns:rdf="http://www.w3.org/1999/02/22-rdf-syntax-ns#"
   xmlns:svg="http://www.w3.org/2000/svg"
   xmlns="http://www.w3.org/2000/svg"
   xmlns:sodipodi="http://sodipodi.sourceforge.net/DTD/sodipodi-0.dtd"
   xmlns:inkscape="http://www.inkscape.org/namespaces/inkscape"
   height="613.80243"
   width="532.0014"
   xml:space="preserve"
   viewBox="0 0 532.0014 613.80241"
   y="0px"
   x="0px"
   id="Capa_1"
   version="1.1"
   sodipodi:docname="confused.svg"
   inkscape:version="0.92.3 (2405546, 2018-03-11)"><sodipodi:namedview
   pagecolor="#ffffff"
   bordercolor="#666666"
   borderopacity="1"
   objecttolerance="10"
   gridtolerance="10"
   guidetolerance="10"
   inkscape:pageopacity="0"
   inkscape:pageshadow="2"
   inkscape:window-width="1853"
   inkscape:window-height="1027"
   id="namedview64"
   showgrid="false"
   inkscape:zoom="0.76897708"
   inkscape:cx="153.57361"
   inkscape:cy="265.84591"
   inkscape:window-x="67"
   inkscape:window-y="25"
   inkscape:window-maximized="1"
   inkscape:current-layer="g1146" /><metadata
   id="metadata79"><rdf:RDF><cc:Work
       rdf:about=""><dc:format>image/svg+xml</dc:format><dc:type
         rdf:resource="http://purl.org/dc/dcmitype/StillImage" /><dc:title /></cc:Work></rdf:RDF></metadata><defs
   id="defs77">















	

		
	
			
			
			
			
			
			
			
			
		</defs>






















<g
   transform="matrix(-1,0,0,1,522.002,104.09245)"
   id="g1146"><g
     id="g1082">
	<g
   id="g1080">
		<g
   id="g1078">
			<path
   d="m 203.03,88.708 c -4.143,0 -7.5,3.357 -7.5,7.5 v 1.298 c 0,4.143 3.357,7.5 7.5,7.5 4.143,0 7.5,-3.357 7.5,-7.5 v -1.298 c 0,-4.143 -3.358,-7.5 -7.5,-7.5 z"
   id="path1064"
   inkscape:connector-curvature="0" />
			<path
   d="m 335.239,437.62 c -1.224,-4.914 -2.872,-10.507 -4.906,-16.671 5.1,-3.422 9.52,-7.327 13.29,-11.739 4.291,-5.021 7.6,-10.541 10.151,-16.419 3.864,2.72 8.518,4.237 13.446,4.237 4.315,0 8.545,-1.199 12.228,-3.466 5.316,-3.27 9.041,-8.416 10.488,-14.487 1.447,-6.071 0.442,-12.345 -2.829,-17.658 -6.076,-9.877 -14.43,-18.87 -24.853,-26.785 0,-0.259 10e-4,-0.517 10e-4,-0.776 0,-11.323 -1.808,-22.386 -5.383,-33.023 h 74.224 c 44.611,0 80.906,-36.295 80.906,-80.906 v -34.164 c -0.003,-44.614 -36.297,-80.908 -80.909,-80.908 h -29.126 c -20.222,0 -38.955,-10.07 -50.109,-26.937 C 331.38,46.95 296.991,28.463 259.865,28.463 h -42.413 c -19.792,0 -39.115,5.001 -56.307,14.49 -0.604,-0.673 -1.226,-1.335 -1.872,-1.982 L 135.219,16.917 c -6.17,-6.169 -16.208,-6.169 -22.38,0 L 88.785,40.969 c -19.433,19.434 -19.433,51.054 0,70.488 4.294,4.294 9.185,7.635 14.405,10.031 -1.6,7.762 -2.419,15.689 -2.419,23.655 v 50.198 c 0,33.034 15.486,63.047 39.901,82.539 -10.249,16.232 -15.827,34.552 -16.271,53.518 -25.006,17.622 -62.926,24.986 -102.369,19.723 -9.24,-1.23 -17.606,3.813 -20.805,12.56 -3.167,8.663 -0.063,17.823 7.725,22.794 48.757,31.129 109.241,37.766 156.896,39.932 1.199,0.58 2.424,1.142 3.682,1.682 0.543,14.833 0.604,30.805 0.109,37.261 -1.349,17.544 11.827,32.915 29.372,34.265 0.814,0.063 1.646,0.095 2.472,0.095 16.555,0 30.52,-12.943 31.792,-29.469 0.152,-1.995 0.531,-15.155 0.351,-30.788 3.148,0.082 6.372,0.126 9.679,0.126 9.155,0 17.687,-0.319 25.642,-0.956 5.105,15.015 5.507,19.924 5.531,20.29 0.009,8.475 3.303,16.448 9.282,22.462 6.01,6.044 14.015,9.386 22.63,9.41 11.404,0 22.016,-6.15 27.694,-16.051 5.52682,-13.00429 5.05629,-20.53353 1.155,-37.114 z m -14.166,29.652 c -2.46752,5.52929 -8.639,8.515 -14.731,8.515 -4.519,-0.013 -8.761,-1.784 -11.945,-4.987 -3.186,-3.202 -4.932,-7.454 -4.919,-11.972 0,-0.049 0,-0.098 -0.001,-0.147 -0.033,-1.957 -0.669,-7.682 -5.292,-21.78 12.608,-1.886 23.468,-4.782 32.721,-8.738 1.54,4.809 2.809,9.194 3.778,13.084 1.30043,8.77789 3.96518,16.59689 0.389,26.025 z m 40.704,-113.371 c 5.009,4.809 9.214,9.949 12.553,15.375 1.171,1.903 1.531,4.148 1.013,6.322 -0.518,2.174 -1.852,4.017 -3.758,5.189 -1.319,0.811 -2.829,1.241 -4.367,1.241 -2.938,0 -5.607,-1.489 -7.142,-3.984 -0.359,-0.584 -0.74,-1.167 -1.132,-1.75 1.551,-7.234 2.389,-14.766 2.833,-22.393 z M 113.93,109.573 c -0.021,-0.006 -0.043,-0.008 -0.064,-0.014 -5.409,-1.641 -10.365,-4.598 -14.474,-8.707 -13.586,-13.586 -13.586,-35.691 0,-49.275 l 24.053,-24.054 c 0.161,-0.161 0.373,-0.241 0.584,-0.241 0.212,0 0.423,0.08 0.584,0.241 l 24.054,24.054 c 13.586,13.584 13.586,35.689 0,49.274 -6.581,6.581 -15.33,10.206 -24.638,10.206 -3.436,0 -6.795,-0.498 -9.999,-1.452 -0.034,-0.009 -0.065,-0.023 -0.1,-0.032 z M 17.022,373.835 c -2.589,-1.652 -2.058,-4.05 -1.709,-5.003 0.365,-0.996 1.557,-3.26 4.733,-2.843 38.96,5.201 76.892,-1.116 104.547,-16.964 0.839,22.118 4.395,43.81 18.391,60.187 0.235,0.275 0.483,0.54 0.723,0.812 C 102.504,406.741 55.465,398.38 17.022,373.835 Z m 201.294,95.261 c -0.674,8.757 -8.069,15.616 -16.836,15.616 -0.444,0 -0.889,-0.017 -1.322,-0.05 -9.298,-0.716 -16.28,-8.862 -15.566,-18.159 0.518,-6.734 0.465,-20.504 0.109,-33.222 9.884,2.648 21.153,4.441 33.914,5.416 0.206,15.966 -0.198,29.066 -0.299,30.399 z M 431.093,285.832 H 227.618 c -4.143,0 -7.5,3.357 -7.5,7.5 0,4.143 3.357,7.5 7.5,7.5 h 113.274 c 4.223,10.549 6.361,21.635 6.361,33.023 0,29.646 -2.516,50.962 -15.035,65.612 -3.762,4.402 -8.43,8.196 -14.058,11.409 -0.325,0.15 -0.63,0.325 -0.924,0.515 -10.819,5.945 -25.098,9.815 -43.314,11.74 -0.367,0.008 -0.735,0.047 -1.104,0.111 -8.899,0.895 -18.71,1.341 -29.514,1.341 -5.77,0 -11.26,-0.126 -16.479,-0.379 -0.274,-0.03 -0.552,-0.05 -0.834,-0.05 -0.019,0 -0.038,0 -0.057,10e-4 -18.592,-0.96 -33.709,-3.565 -45.728,-7.917 -0.5,-0.254 -1.03,-0.453 -1.584,-0.589 -2.429,-0.932 -4.726,-1.939 -6.895,-3.022 -0.346,-0.216 -0.712,-0.4 -1.092,-0.558 -6.621,-3.454 -12.009,-7.643 -16.248,-12.603 -12.521,-14.649 -15.035,-35.967 -15.035,-65.612 0,-16.782 4.713,-33.057 13.682,-47.468 11.714,6.889 24.897,11.594 39.028,13.495 0.34,0.046 0.677,0.068 1.011,0.068 3.697,0 6.916,-2.735 7.423,-6.5 0.553,-4.105 -2.327,-7.881 -6.432,-8.434 -44.633,-6.01 -78.291,-44.561 -78.291,-89.676 v -50.198 c 0,-6.574 0.636,-13.116 1.885,-19.53 2.116,0.271 4.245,0.419 6.375,0.419 12.764,0 25.526,-4.858 35.244,-14.574 v -0.001 c 15.096,-15.096 18.458,-37.546 10.1,-55.924 14.727,-7.915 31.208,-12.072 48.079,-12.072 h 42.413 c 32.076,0 61.789,15.973 79.481,42.728 13.94,21.079 37.35,33.664 62.621,33.664 h 29.126 c 36.342,0 65.907,29.566 65.907,65.908 v 34.167 H 497 c 0,36.341 -29.565,65.906 -65.907,65.906 z"
   id="path1066"
   inkscape:connector-curvature="0"
   style="stroke:#ffffff;stroke-width:6;stroke-miterlimit:4;stroke-dasharray:none"
   sodipodi:nodetypes="ccccscsccscsscsscsscccccccsscccccccccsccscccccccccccccccccscscccccsccssccsccccccccccscccccsssscscccccscsccccccsccsccsscscccsscsssccs" />
			<path
   d="m 216.841,357.835 c -2.577,3.242 -2.037,7.961 1.206,10.538 5.603,4.452 17.61,9.652 33.013,9.652 10.631,0 20.598,-2.508 29.624,-7.455 11.299,-6.191 15.452,-20.421 9.262,-31.723 -3.001,-5.474 -7.953,-9.451 -13.943,-11.2 -5.99,-1.75 -12.306,-1.061 -17.777,1.94 -6.195,3.392 -13.399,0.673 -13.467,0.645 -3.829,-1.591 -8.215,0.226 -9.802,4.052 -1.588,3.826 0.227,8.215 4.052,9.802 5.066,2.104 16.332,4.188 26.426,-1.345 1.959,-1.072 4.222,-1.319 6.365,-0.694 2.146,0.627 3.92,2.052 4.994,4.011 2.217,4.047 0.729,9.143 -3.316,11.36 -6.792,3.722 -14.332,5.609 -22.415,5.609 -11.47,0 -20.445,-3.825 -23.681,-6.396 -3.246,-2.577 -7.962,-2.039 -10.541,1.204 z"
   id="path1068"
   inkscape:connector-curvature="0"
   style="stroke:#ffffff;stroke-width:6;stroke-miterlimit:4;stroke-dasharray:none" />
			<circle
   cx="440.509"
   cy="150.698"
   r="7.5139999"
   id="circle1070" />
			<path
   d="M 423.642,228.006 H 409.49 c -4.143,0 -7.5,3.357 -7.5,7.5 0,4.143 3.357,7.5 7.5,7.5 h 14.153 c 4.143,0 7.5,-3.357 7.5,-7.5 -0.002,-4.143 -3.358,-7.5 -7.501,-7.5 z"
   id="path1072"
   inkscape:connector-curvature="0"
   style="stroke:#ffffff;stroke-width:6;stroke-miterlimit:4;stroke-dasharray:none" />
			<path
   d="m 282.125,88.708 c -4.143,0 -7.5,3.357 -7.5,7.5 v 1.298 c 0,4.143 3.357,7.5 7.5,7.5 4.143,0 7.5,-3.357 7.5,-7.5 v -1.298 c 0,-4.143 -3.358,-7.5 -7.5,-7.5 z"
   id="path1074"
   inkscape:connector-curvature="0" />
			<circle
   cx="392.62201"
   cy="150.698"
   r="7.5139999"
   id="circle1076" />
		</g>
	</g>
</g><g
     id="g1084">
</g><g
     id="g1086">
</g><g
     id="g1088">
</g><g
     id="g1090">
</g><g
     id="g1092">
</g><g
     id="g1094">
</g><g
     id="g1096">
</g><g
     id="g1098">
</g><g
     id="g1100">
</g><g
     id="g1102">
</g><g
     id="g1104">
</g><g
     id="g1106">
</g><g
     id="g1108">
</g><g
     id="g1110">
</g><g
     id="g1112">
</g></g><g
   transform="rotate(-5.0710535,363.01106,363.39911)"
   id="g1247"><g
   aria-label="?"
   style="font-style:normal;font-variant:normal;font-weight:normal;font-stretch:normal;font-size:96.01252747px;line-height:1.25;font-family:Molot;-inkscape-font-specification:Molot;text-align:start;letter-spacing:0px;word-spacing:0px;text-anchor:start;fill:#000000;fill-opacity:1;stroke:none;stroke-width:1"
   id="text1237"><path
     d="m 260.91222,59.158414 h -12.57764 v -7.200939 q 0,-2.880376 1.44019,-5.472714 1.44019,-2.688351 2.78436,-4.032527 1.44019,-1.440188 4.22455,-3.744488 l 2.97639,-2.496326 q 4.99265,-4.320564 4.99265,-8.257077 0,-3.264426 -2.20828,-5.184677 -2.11228,-1.92025 -5.76076,-1.92025 -3.74448,0 -6.33682,2.400313 -2.59234,2.304301 -3.26443,4.608601 l -0.7681,2.304301 -11.5215,-3.360439 q 0.19202,-0.672087 0.48006,-1.824238 0.38405,-1.15215 2.01626,-4.032526 1.63222,-2.880376 3.84051,-5.088664 2.20828,-2.208288 6.33682,-4.032526 Q 251.79103,10 256.8797,10 q 9.2172,0 14.88194,4.608601 5.76075,4.608602 5.76075,13.153717 0,8.161065 -7.87303,14.113841 l -3.45645,2.592338 q -2.68835,2.016264 -4.03252,3.840502 -1.24817,1.728225 -1.24817,4.416576 z m -11.90555,18.722443 q -2.3043,-2.304301 -2.3043,-5.568727 0,-3.264426 2.3043,-5.568726 2.40031,-2.304301 5.66474,-2.304301 3.36044,0 5.66474,2.304301 2.40031,2.3043 2.40031,5.568726 0,3.264426 -2.40031,5.568727 -2.3043,2.208288 -5.66474,2.208288 -3.26443,0 -5.66474,-2.208288 z"
     style="font-style:normal;font-variant:normal;font-weight:normal;font-stretch:normal;font-family:'Moskau Grotesk Bold';-inkscape-font-specification:'Moskau Grotesk Bold, ';stroke-width:0.16664493"
     id="path844"
     inkscape:connector-curvature="0" /></g>

<g
   aria-label="?"
   transform="rotate(20.047008)"
   style="font-style:normal;font-variant:normal;font-weight:normal;font-stretch:normal;font-size:96.01252747px;line-height:1.25;font-family:Molot;-inkscape-font-specification:Molot;text-align:start;letter-spacing:0px;word-spacing:0px;text-anchor:start;fill:#000000;fill-opacity:1;stroke:none;stroke-width:1"
   id="text1241"><path
     d="m 317.44479,-40.796721 h -12.57765 v -7.20094 q 0,-2.880376 1.44019,-5.472714 1.44019,-2.688351 2.78437,-4.032526 1.44018,-1.440188 4.22455,-3.744489 l 2.97639,-2.496325 q 4.99265,-4.320564 4.99265,-8.257078 0,-3.264426 -2.20829,-5.184676 -2.11228,-1.920251 -5.76075,-1.920251 -3.74449,0 -6.33683,2.400314 -2.59234,2.3043 -3.26443,4.608601 l -0.7681,2.304301 -11.5215,-3.360439 q 0.19203,-0.672088 0.48006,-1.824238 0.38405,-1.15215 2.01627,-4.032526 1.63221,-2.880376 3.8405,-5.088664 2.20829,-2.208288 6.33682,-4.032526 4.22456,-1.824238 9.31322,-1.824238 9.2172,0 14.88194,4.608601 5.76075,4.608601 5.76075,13.153716 0,8.161065 -7.87302,14.113842 l -3.45646,2.592338 q -2.68835,2.016263 -4.03252,3.840501 -1.24816,1.728226 -1.24816,4.416576 z m -11.90556,18.722443 q -2.3043,-2.304301 -2.3043,-5.568727 0,-3.264426 2.3043,-5.568727 2.40032,-2.3043 5.66474,-2.3043 3.36044,0 5.66474,2.3043 2.40031,2.304301 2.40031,5.568727 0,3.264426 -2.40031,5.568727 -2.3043,2.208288 -5.66474,2.208288 -3.26442,0 -5.66474,-2.208288 z"
     style="font-style:normal;font-variant:normal;font-weight:normal;font-stretch:normal;font-family:'Moskau Grotesk Bold';-inkscape-font-specification:'Moskau Grotesk Bold, ';stroke-width:0.16664493"
     id="path847"
     inkscape:connector-curvature="0" /></g>

<g
   aria-label="?"
   transform="rotate(-14.456109)"
   style="font-style:normal;font-variant:normal;font-weight:normal;font-stretch:normal;font-size:96.01252747px;line-height:1.25;font-family:Molot;-inkscape-font-specification:Molot;text-align:start;letter-spacing:0px;word-spacing:0px;text-anchor:start;fill:#000000;fill-opacity:1;stroke:none;stroke-width:1"
   id="text1245"><path
     d="m 183.31156,117.3182 h -12.57764 v -7.20094 q 0,-2.88037 1.44019,-5.47271 1.44019,-2.68835 2.78436,-4.03253 1.44019,-1.440183 4.22455,-3.744484 l 2.97639,-2.496326 q 4.99265,-4.320564 4.99265,-8.257077 0,-3.264426 -2.20829,-5.184677 -2.11227,-1.92025 -5.76075,-1.92025 -3.74449,0 -6.33682,2.400313 -2.59234,2.304301 -3.26443,4.608601 l -0.7681,2.304301 -11.5215,-3.360439 q 0.19202,-0.672087 0.48006,-1.824238 0.38405,-1.15215 2.01626,-4.032526 1.63221,-2.880376 3.8405,-5.088664 2.20829,-2.208288 6.33683,-4.032526 4.22455,-1.824238 9.31321,-1.824238 9.21721,0 14.88195,4.608601 5.76075,4.608602 5.76075,13.153717 0,8.161065 -7.87303,14.113842 l -3.45645,2.59234 q -2.68835,2.01626 -4.03253,3.8405 -1.24816,1.72822 -1.24816,4.41657 z m -11.90555,18.72245 q -2.3043,-2.3043 -2.3043,-5.56873 0,-3.26443 2.3043,-5.56873 2.40031,-2.3043 5.66474,-2.3043 3.36044,0 5.66474,2.3043 2.40031,2.3043 2.40031,5.56873 0,3.26443 -2.40031,5.56873 -2.3043,2.20829 -5.66474,2.20829 -3.26443,0 -5.66474,-2.20829 z"
     style="font-style:normal;font-variant:normal;font-weight:normal;font-stretch:normal;font-family:'Moskau Grotesk Bold';-inkscape-font-specification:'Moskau Grotesk Bold, ';stroke-width:0.16664493"
     id="path850"
     inkscape:connector-curvature="0" /></g>

</g></svg>