<?xml version="1.0" encoding="UTF-8" standalone="no"?>
<svg
   xmlns:dc="http://purl.org/dc/elements/1.1/"
   xmlns:cc="http://creativecommons.org/ns#"
   xmlns:rdf="http://www.w3.org/1999/02/22-rdf-syntax-ns#"
   xmlns:svg="http://www.w3.org/2000/svg"
   xmlns="http://www.w3.org/2000/svg"
   xmlns:sodipodi="http://sodipodi.sourceforge.net/DTD/sodipodi-0.dtd"
   xmlns:inkscape="http://www.inkscape.org/namespaces/inkscape"
   height="532.00494"
   width="496.13187"
   xml:space="preserve"
   viewBox="0 0 496.13186 532.00493"
   y="0px"
   x="0px"
   id="Capa_1"
   version="1.1"
   sodipodi:docname="happy.svg"
   inkscape:version="0.92.3 (2405546, 2018-03-11)"><sodipodi:namedview
   pagecolor="#ffffff"
   bordercolor="#666666"
   borderopacity="1"
   objecttolerance="10"
   gridtolerance="10"
   guidetolerance="10"
   inkscape:pageopacity="0"
   inkscape:pageshadow="2"
   inkscape:window-width="1853"
   inkscape:window-height="1027"
   id="namedview64"
   showgrid="false"
   inkscape:zoom="0.88720984"
   inkscape:cx="184.48441"
   inkscape:cy="210.5054"
   inkscape:window-x="67"
   inkscape:window-y="25"
   inkscape:window-maximized="1"
   inkscape:current-layer="g907" /><metadata
   id="metadata79"><rdf:RDF><cc:Work
       rdf:about=""><dc:format>image/svg+xml</dc:format><dc:type
         rdf:resource="http://purl.org/dc/dcmitype/StillImage" /><dc:title /></cc:Work></rdf:RDF></metadata><defs
   id="defs77">















	

		
	
			
			
			
			
			
			
			
			
		</defs>






















<g
   transform="translate(-7.935919,10.000925)"
   id="g975"><g
     id="g911">
	<g
   id="g909">
		<g
   id="g907">
			<path
   d="m 113.38,455.15 c 3.347,6.236 8.777,11.214 15.291,14.015 3.96,1.703 8.138,2.566 12.419,2.566 h 0.005 c 12.596,0 23.95,-7.475 28.926,-19.045 5.868,-13.645 12.933,-17.941 18.357,-19.618 9.331,3.671 19.783,7.053 31.439,10.177 0.043,0.012 0.084,0.022 0.127,0.034 -3.797,16.923 -2.758,33.605 3.103,48.661 4.745,12.19 16.26,20.065 29.337,20.064 3.906,0 7.745,-0.723 11.413,-2.15 7.834,-3.05 14.013,-8.968 17.396,-16.665 3.384,-7.696 3.567,-16.25 0.517,-24.083 -1.742,-4.477 -1.294,-10.655 1.133,-17.074 8.268,-0.392 15.757,-1.63 22.519,-3.737 9.972,0.511 20.538,0.878 31.501,0.878 39.628,0 84.301,-4.778 123.7,-24.729 8.151,-4.128 12.106,-12.84 9.839,-21.677 -2.229,-8.696 -9.631,-14.416 -18.543,-14.416 -0.232,0 -0.465,0.004 -0.698,0.012 -34.45,1.142 -66.82,-7.149 -89.741,-22.85 3.1,-16.454 2.097,-33.355 -2.933,-49.613 7.963,-3.466 15.514,-7.904 22.389,-13.259 17.921,-13.957 30.508,-32.96 36.401,-54.956 l 12.761,-47.62 c 2.684,-10.018 3.995,-20.206 3.929,-30.428 4.97,1.777 10.209,2.683 15.455,2.683 5.366,0 10.737,-0.937 15.823,-2.823 11.338,-4.205 20.24,-12.547 25.067,-23.489 9.787,-22.195 -0.217,-48.419 -22.301,-58.459 -14.967,-6.805 -30.038,-6.977 -44.791,-0.516 -5.37,2.352 -10.713,5.624 -15.996,9.771 C 392.15,78.778 371.727,65.661 348.91,59.547 L 308.676,48.766 C 285.164,42.467 260.652,44.211 238.511,53.571 237.71,46.29 236.14,39.685 233.801,33.812 227.839,18.847 216.992,8.385 201.562,2.713 178.79,-5.655 153.249,5.98 144.626,28.651 c -4.251,11.178 -3.775,23.368 1.339,34.326 5.183,11.105 16.21391,17.947415 27.80591,21.968415 7.01378,1.777694 7.39367,1.146238 15.24979,1.933694 C 181.13,91.040169 160.61,86.763 154.453,85.113 L 126.824,77.71 C 106.287,72.207 84.839,75.031 66.427,85.661 48.014,96.293 34.843,113.456 29.341,133.992 l -8.684,32.409 c -11.359,42.393 13.889,86.122 56.281,97.482 l 70.234,18.819 c -4.035,6.102 -7.381,12.58 -10.012,19.389 -0.601,-0.797 -1.17,-1.599 -1.69,-2.407 -6.881,-10.709 -21.191,-13.824 -31.898,-6.945 -10.71,6.878 -13.827,21.187 -6.947,31.898 10.34,16.098 24.539,25.717 29.476,29.021 -0.618,12.188 0.88,24.096 6.182,35.203 0.81,1.696 1.709,3.355 2.68,4.985 -6.482,6.35 -12.5875,13.4075 -16.986,22.278 -5.579,17.53401 -8.1835,28.26649 -4.597,39.026 z m 17.05125,-29.243 c 4.573,-8.86075 8.77375,-14.974 13.72275,-20.059 6.953,7.261 16.006,13.762 27.315,19.612 -6.172,4.978 -11.269,12.089 -15.23,21.299 -2.605,6.057 -8.55,9.971 -15.147,9.971 h -0.003 c -2.232,0 -4.417,-0.453 -6.493,-1.346 -3.45655,-1.49209 -6.37118,-2.31035 -7.79975,-8.32425 -0.99625,-4.98125 -0.15075,-8.79924 3.635,-21.15275 z m -2.28925,-89.23 c -5.568,-4.306 -13.046,-11.04 -18.895,-20.146 -2.409,-3.75 -1.317,-8.76 2.433,-11.169 3.751,-2.409 8.76,-1.317 11.17,2.432 2.472,3.848 5.578,7.547 9.258,11.04 -1.51,5.917 -2.895,11.883 -3.966,17.843 z M 159.557,56.634 c -3.384,-7.25 -3.708,-15.294 -0.911,-22.648 5.715,-15.026 22.648,-22.739 37.74,-17.191 18.564,6.822 27.704,22.611 27.766,48.103 -0.011,0.226 -0.011,0.452 -0.002,0.679 -0.014,3.547 -0.197,7.274 -0.556,11.195 -0.069,0.759 -0.521,1.163 -0.888,1.368 -0.318,0.178 -0.967,0.419 -1.741,0.035 -5.193,-2.569 -9.789,-3.206 -14.123,-3.206 -2.149,0 -4.235,0.156 -6.296,0.311 -6.292,0.474 -12.799,0.961 -23.268,-2.671 -7.784,-2.701 -14.243,-8.524 -17.721,-15.975 z M 267.46,487.149 c -1.771,4.028 -5.004,7.126 -9.103,8.721 -1.925,0.749 -3.934,1.129 -5.972,1.129 -6.844,10e-4 -12.873,-4.123 -15.357,-10.505 -5.679,-14.588 -4.895,-28.771 -2.506,-39.647 11.901,2.637 22.757,4.297 32.656,4.973 -2.161,8.179 -2.019,16.112 0.554,22.723 1.594,4.101 1.498,8.578 -0.272,12.606 z m 184.197,-83.798 c 3.053,-0.11 3.961,2.16 4.212,3.137 0.298,1.161 0.422,3.298 -2.087,4.568 -32.219,16.317 -71.048,23.627 -123.734,23.017 14.397,-13.519 21.789,-33.172 27.5,-53.198 25.128,15.528 58.747,23.641 94.109,22.476 z m -36.11,-207.173 -12.761,47.62 c -5.042,18.816 -15.807,35.069 -31.13,47.004 -14.833,11.552 -33.291,18.212 -51.975,18.753 -4.14,0.12 -7.399,3.574 -7.279,7.714 0.118,4.067 3.451,7.283 7.493,7.283 0.073,0 0.147,-0.001 0.222,-0.003 8.182,-0.237 16.326,-1.478 24.223,-3.645 4.798,15.886 5.115,32.448 0.868,48.299 -7.527,28.094 -15.32,47.653 -30.888,58.344 -3.67,2.52 -7.777,4.539 -12.342,6.076 -0.075,0.025 -0.151,0.048 -0.225,0.076 -6.663,2.212 -14.305,3.389 -23.044,3.52 -0.584,-0.064 -1.168,-0.066 -1.742,0.006 -14.624,-0.01 -32.215,-2.83 -53.268,-8.472 -11.83,-3.169 -22.26,-6.565 -31.387,-10.227 -0.421,-0.218 -0.864,-0.396 -1.322,-0.532 -23.743,-9.727 -38.359,-21.327 -45.17,-35.596 -6.031,-12.636 -7.73,-28.078 2.423,-65.97 2.882,-10.756 7.701,-20.689 14.351,-29.591 l 121.307,32.504 c 0.65,0.174 1.304,0.257 1.946,0.257 3.311,-0.001 6.342,-2.21 7.239,-5.561 1.072,-4.001 -1.302,-8.113 -5.303,-9.187 L 80.821,249.395 C 64.156,244.93 50.226,234.241 41.6,219.3 32.974,204.359 30.682,186.951 35.148,170.285 l 8.684,-32.41 C 48.297,121.21 58.986,107.28 73.928,98.654 88.87,90.028 106.278,87.735 122.942,92.202 l 27.63,7.403 c 20.323,5.444 41.793,2.002 59.353,-9.419 1.446,0.233 2.856,0.673 4.389,1.431 2.368,1.172 4.933,1.755 7.495,1.755 2.838,0 5.671,-0.716 8.22,-2.142 4.82,-2.695 7.999,-7.589 8.504,-13.09 0.261,-2.844 0.428,-5.612 0.521,-8.317 20.411,-10.154 43.587,-12.502 65.739,-6.566 l 40.234,10.781 c 20.043,5.37 37.957,16.955 51.096,32.876 -2.49,2.586 -4.962,5.359 -7.41,8.342 -3.505,4.27 -4.68,9.986 -3.143,15.291 1.547,5.337 5.626,9.568 10.913,11.316 4.329,1.432 6.451,3.866 9.968,7.899 3.02,3.465 6.532,7.479 12.097,11.536 1.072,11.696 0.071,23.415 -3.001,34.88 z m 61.038,-56.227 c -3.176,7.199 -9.057,12.697 -16.559,15.479 -7.709,2.859 -16.397,2.466 -23.833,-1.081 -2.489,-1.187 -4.622,-2.383 -6.489,-3.583 -0.032,-0.021 -0.063,-0.042 -0.095,-0.062 -5.578,-3.604 -8.755,-7.247 -11.853,-10.8 -4.098,-4.701 -8.335,-9.563 -16.565,-12.284 -0.82,-0.271 -1.112,-0.898 -1.214,-1.248 -0.117,-0.403 -0.154,-1.008 0.329,-1.597 3.577,-4.356 7.134,-8.173 10.681,-11.489 0.234,-0.199 0.459,-0.406 0.663,-0.627 11.157,-10.229 22.195,-15.312 33.3,-15.312 5.592,0 11.204,1.289 16.853,3.857 14.639,6.657 21.27,24.039 14.782,38.747 z"
   id="path893"
   style="stroke:#ffffff;stroke-width:6;stroke-miterlimit:4;stroke-dasharray:none"
   inkscape:connector-curvature="0"
   sodipodi:nodetypes="ccsscccccccccccsccscccccccscccccsccccccccccccccccccccccccccccsscccccccccccccccccsccccccccccccccccccccccscccccccccccccccccccsccsccccscccccccccccccccccccccccscc" />
			<path
   d="m 355.114,107.579 c -11.244,-3.01 -22.837,3.682 -25.85,14.924 -1.072,4.001 1.302,8.114 5.303,9.186 3.994,1.072 8.113,-1.301 9.186,-5.302 0.872,-3.252 4.225,-5.187 7.478,-4.318 1.575,0.422 2.892,1.433 3.707,2.845 0.814,1.412 1.031,3.057 0.609,4.631 -1.072,4.001 1.302,8.114 5.303,9.187 0.65,0.174 1.303,0.258 1.946,0.258 3.311,0 6.342,-2.21 7.239,-5.56 1.46,-5.445 0.711,-11.134 -2.107,-16.016 -2.817,-4.883 -7.368,-8.375 -12.814,-9.835 z"
   id="path895"
   style="stroke:#ffffff;stroke-width:6;stroke-miterlimit:4;stroke-dasharray:none" />
			<path
   d="m 287.558,336.145 c -8.546,4.772 -18.308,5.738 -21.989,6.102 l -0.5,0.05 c -5.732,0.577 -11.01,3.254 -14.858,7.54 -2.768,3.082 -2.513,7.824 0.569,10.592 3.081,2.768 7.824,2.512 10.592,-0.569 1.346,-1.499 3.192,-2.436 5.193,-2.637 l 0.487,-0.049 c 4.525,-0.448 16.546,-1.637 27.819,-7.932 1.883,-1.053 4.064,-1.31 6.143,-0.719 2.077,0.588 3.802,1.951 4.853,3.836 1.053,1.885 1.309,4.067 0.72,6.144 -0.589,2.077 -1.951,3.8 -3.836,4.853 -14.211,7.935 -29.185,9.419 -34.103,9.906 l -0.463,0.045 c -0.975,0.099 -1.982,0.019 -2.927,-0.238 -3.985,-1.089 -8.118,1.265 -9.209,5.261 -1.09,3.996 1.266,8.12 5.262,9.21 1.967,0.537 4.003,0.809 6.05,0.809 0.778,0 1.565,-0.04 2.315,-0.116 l 0.447,-0.044 c 5.688,-0.564 23.003,-2.278 39.94,-11.736 5.384,-3.006 9.274,-7.928 10.956,-13.861 1.681,-5.932 0.951,-12.164 -2.055,-17.548 -3.006,-5.383 -7.929,-9.274 -13.861,-10.956 -5.932,-1.679 -12.165,-0.95 -17.545,2.057 z"
   id="path897"
   style="stroke:#ffffff;stroke-width:6;stroke-miterlimit:4;stroke-dasharray:none" />
			<circle
   cx="151.631"
   cy="131.11099"
   r="7.3800001"
   id="circle899" />
			<path
   d="m 137.898,164.591 -36.542,-9.79 c -12.635,-3.383 -25.673,4.14 -29.06,16.778 l -4.895,18.272 c -6.085,22.711 7.441,46.14 30.153,52.227 0,0 0,0 0.001,0 3.673,0.984 7.401,1.471 11.106,1.471 7.389,0 14.682,-1.938 21.252,-5.732 9.865,-5.695 16.921,-14.891 19.869,-25.892 l 4.896,-18.272 c 1.64,-6.122 0.798,-12.516 -2.371,-18.005 -3.171,-5.491 -8.287,-9.417 -14.409,-11.057 z m 2.288,25.177 -4.896,18.271 c -1.911,7.131 -6.484,13.093 -12.879,16.784 -6.394,3.691 -13.842,4.673 -20.975,2.761 h 10e-4 C 86.714,223.639 77.946,208.452 81.891,193.73 l 4.896,-18.271 c 1.245,-4.648 6.04,-7.419 10.688,-6.17 l 36.542,9.792 c 2.251,0.603 4.133,2.047 5.298,4.065 1.165,2.019 1.475,4.371 0.871,6.622 z"
   id="path901"
   style="stroke:#ffffff;stroke-width:6;stroke-miterlimit:4;stroke-dasharray:none" />
			<path
   d="m 271.852,85.269 c -5.444,-1.458 -11.133,-0.71 -16.015,2.109 -4.882,2.818 -8.374,7.37 -9.834,12.816 -1.072,4.001 1.303,8.114 5.304,9.186 4.002,1.069 8.114,-1.302 9.185,-5.304 0.872,-3.251 4.223,-5.19 7.477,-4.316 3.252,0.871 5.188,4.226 4.317,7.477 -1.072,4.001 1.303,8.114 5.304,9.187 0.65,0.174 1.303,0.257 1.945,0.257 3.312,0 6.342,-2.21 7.239,-5.561 3.015,-11.243 -3.679,-22.838 -14.922,-25.851 z"
   id="path903"
   style="stroke:#ffffff;stroke-width:6;stroke-miterlimit:4;stroke-dasharray:none" />
			<circle
   cx="106.204"
   cy="118.937"
   r="7.3800001"
   id="circle905" />
		</g>
	</g>
</g><g
     id="g913">
</g><g
     id="g915">
</g><g
     id="g917">
</g><g
     id="g919">
</g><g
     id="g921">
</g><g
     id="g923">
</g><g
     id="g925">
</g><g
     id="g927">
</g><g
     id="g929">
</g><g
     id="g931">
</g><g
     id="g933">
</g><g
     id="g935">
</g><g
     id="g937">
</g><g
     id="g939">
</g><g
     id="g941">
</g></g></svg>