<?xml version="1.0" encoding="UTF-8" standalone="no"?>
<svg
   xmlns:dc="http://purl.org/dc/elements/1.1/"
   xmlns:cc="http://creativecommons.org/ns#"
   xmlns:rdf="http://www.w3.org/1999/02/22-rdf-syntax-ns#"
   xmlns:svg="http://www.w3.org/2000/svg"
   xmlns="http://www.w3.org/2000/svg"
   version="1.1"
   width="368.99982"
   viewBox="0 0 366.64672 565.96706"
   height="569.59937"
   enable-background="new 0 0 508.735 508.735"
   id="Capa_1">
  <metadata
     id="metadata23">
    <rdf:RDF>
      <cc:Work
         rdf:about="">
        <dc:format>image/svg+xml</dc:format>
        <dc:type
           rdf:resource="http://purl.org/dc/dcmitype/StillImage" />
        <dc:title></dc:title>
      </cc:Work>
    </rdf:RDF>
  </metadata>
  <defs
     id="defs21" />
  <g
     transform="rotate(15,93.392898,228.23616)"
     id="g4572">
    <g
       id="g16">
      <g
         id="g4562">
        <path
           id="path2"
           d="m 205.339,410.219 h -98.288 c -13.917,0 -25.239,-11.322 -25.239,-25.239 v -27.638 c 2.208,0.514 4.475,0.799 6.777,0.799 1.046,0 2.1,-0.054 3.156,-0.164 1.732,-0.18 3.424,-0.512 5.067,-0.972 v 27.975 c 0,5.646 4.593,10.239 10.239,10.239 h 96.319 c 4.142,0 7.5,-3.357 7.5,-7.5 0,-4.143 -3.358,-7.5 -7.5,-7.5 h -91.558 v -33.006 c 0.05,-0.061 0.104,-0.118 0.153,-0.18 9.881,-12.167 8.644,-29.791 -2.413,-40.498 4.829,-1.81 9.257,-4.875 12.736,-9.159 9.881,-12.167 8.644,-29.791 -2.413,-40.498 4.829,-1.81 9.257,-4.875 12.736,-9.159 5.058,-6.229 7.388,-14.055 6.56,-22.036 -0.828,-7.98 -4.714,-15.162 -10.943,-20.22 L 111.811,192.131 V 45 h 33.209 l 0.215,0.678 c 2.499,7.874 9.728,13.165 17.989,13.165 h 57.967 c 8.261,0 15.49,-5.29 17.99,-13.166 L 239.398,45 h 29.804 v 104.08 c 0,4.143 3.357,7.5 7.5,7.5 4.143,0 7.5,-3.357 7.5,-7.5 V 40.239 C 284.202,34.593 279.609,30 273.964,30 h -36.587 c -5.356,0 -10.044,3.431 -11.665,8.537 l -0.826,2.603 c -0.513,1.617 -1.997,2.703 -3.693,2.703 h -57.967 c -1.695,0 -3.179,-1.086 -3.692,-2.702 l -0.826,-2.604 C 157.088,33.431 152.401,30 147.043,30 h -39.992 c -5.646,0 -10.239,4.594 -10.239,10.239 V 179.99 c -4.431,-3.301 -9.59,-5.284 -15,-5.802 V 97.85 c 0,-4.143 -3.358,-7.5 -7.5,-7.5 -4.117,0 -7.456,3.317 -7.496,7.425 -5.508,-3.269 -11.893,-4.683 -18.38,-4.01 -7.981,0.828 -15.162,4.714 -20.22,10.943 -5.058,6.229 -7.388,14.055 -6.561,22.036 0.828,7.98 4.714,15.162 10.943,20.22 l 34.214,27.784 v 1.831 c -4.33,1.895 -8.177,4.802 -11.243,8.577 -5.058,6.229 -7.388,14.055 -6.561,22.036 0.735,7.09 3.89,13.545 8.951,18.445 -4.931,1.851 -9.305,4.979 -12.714,9.176 -9.883,12.171 -8.644,29.799 2.419,40.506 -4.831,1.807 -9.262,4.865 -12.742,9.151 -5.059,6.229 -7.389,14.055 -6.561,22.036 0.828,7.98 4.714,15.162 10.943,20.221 l 27.507,22.337 v 35.915 c 0,22.188 18.051,40.239 40.239,40.239 h 98.288 c 4.142,0 7.5,-3.357 7.5,-7.5 0,-4.143 -3.357,-7.499 -7.499,-7.499 z M 42.054,135.319 c -3.118,-2.532 -5.064,-6.127 -5.479,-10.123 -0.414,-3.996 0.752,-7.914 3.285,-11.033 2.532,-3.118 6.127,-5.063 10.124,-5.479 3.992,-0.416 7.914,0.751 11.032,3.285 l 5.796,4.707 v 38.748 z m 25.16,59.292 c 2.532,-3.118 6.127,-5.063 10.124,-5.479 0.528,-0.055 1.055,-0.082 1.58,-0.082 3.438,0 6.747,1.17 9.453,3.367 l 30.404,24.689 c 3.118,2.532 5.064,6.127 5.479,10.123 0.414,3.996 -0.752,7.914 -3.284,11.032 -5.228,6.438 -14.718,7.425 -21.157,2.194 L 69.409,215.766 c -3.118,-2.532 -5.064,-6.127 -5.479,-10.123 -0.415,-3.995 0.752,-7.913 3.284,-11.032 z m -10.323,49.658 c 2.532,-3.118 6.127,-5.063 10.124,-5.479 3.83,-0.393 7.583,0.674 10.635,2.993 l 12.706,10.318 c 0.144,0.117 0.296,0.214 0.441,0.328 l 17.653,14.335 c 6.438,5.228 7.422,14.719 2.194,21.156 -5.228,6.437 -14.719,7.422 -21.157,2.194 L 59.084,265.425 c -6.437,-5.227 -7.421,-14.718 -2.193,-21.156 z m -13.608,60.69 c -0.414,-3.995 0.752,-7.913 3.285,-11.032 2.968,-3.655 7.311,-5.553 11.689,-5.553 3.155,0 6.322,0.999 9.012,3.021 l 12.764,10.365 c 0.146,0.119 0.302,0.218 0.45,0.333 l 17.645,14.329 c 6.438,5.228 7.422,14.719 2.194,21.156 -2.533,3.118 -6.128,5.064 -10.124,5.479 -3.995,0.413 -7.914,-0.753 -11.032,-3.285 L 48.763,315.083 c -3.12,-2.532 -5.066,-6.128 -5.48,-10.124 z" />
        <path
           id="path4"
           d="m 74.312,73.388 c 4.142,0 7.5,-3.357 7.5,-7.5 V 40.239 C 81.812,26.322 93.135,15 107.051,15 h 166.912 c 13.916,0 25.238,11.322 25.238,25.239 v 138.396 c 0,4.143 3.357,7.5 7.5,7.5 4.143,0 7.5,-3.357 7.5,-7.5 V 40.239 C 314.202,18.051 296.151,0 273.963,0 H 107.051 C 84.863,0 66.812,18.051 66.812,40.239 v 25.648 c 0,4.143 3.358,7.501 7.5,7.501 z" />
        <path
           id="path8"
           d="m 301.814,475.533 c -1.164,-1.52 -2.865,-2.536 -4.755,-2.842 -26.075,-4.215 -47.165,-24.431 -52.479,-50.304 l -2.764,-13.461 c -3.128,-15.23 -0.61,-31.057 7.09,-44.565 l 37.101,-65.089 c 4.825,-8.464 4.072,-18.898 -1.918,-26.583 l -34.75,-44.575 c -10.167,-13.041 -9.657,-31.551 1.211,-44.012 l 1.857,-2.13 c 0.993,-1.139 2.229,-1.329 2.876,-1.342 0.664,-0.021 1.89,0.131 2.926,1.23 l 33.159,35.182 c 2.841,3.015 7.587,3.153 10.603,0.313 3.014,-2.841 3.154,-7.588 0.313,-10.603 l -33.159,-35.181 c -3.653,-3.877 -8.803,-6.05 -14.131,-5.939 -5.327,0.103 -10.39,2.464 -13.892,6.479 l -1.857,2.13 c -15.58,17.864 -16.31,44.398 -1.736,63.094 l 34.75,44.575 c 2.238,2.871 2.52,6.77 0.717,9.933 l -37.101,65.089 c -9.505,16.674 -12.613,36.211 -8.752,55.011 l 2.764,13.461 c 6.354,30.941 30.984,55.328 61.782,61.55 l 14.444,18.843 c 1.477,1.927 3.704,2.938 5.958,2.938 1.591,0 3.196,-0.505 4.557,-1.548 3.288,-2.52 3.91,-7.228 1.39,-10.515 z" />
        <path
           id="path10"
           d="m 394.167,388.987 c -1.629,-1.916 -2.526,-4.356 -2.526,-6.87 v -38.613 c 0,-27.049 -10.217,-52.785 -28.769,-72.469 l -38.655,-41.012 c -2.841,-3.015 -7.588,-3.153 -10.603,-0.313 -3.014,2.841 -3.154,7.588 -0.313,10.603 l 38.655,41.012 c 15.918,16.889 24.685,38.971 24.685,62.18 v 38.613 c 0,6.069 2.165,11.959 6.097,16.585 l 19.354,22.769 c 1.484,1.745 3.595,2.643 5.719,2.643 1.717,0 3.442,-0.586 4.854,-1.785 3.156,-2.684 3.54,-7.416 0.857,-10.572 z" />
        <path
           id="path14"
           d="m 211.572,337.624 h -58.659 c -1.211,0 -2.197,-0.985 -2.197,-2.197 v -32.091 c 0,-1.212 0.986,-2.197 2.197,-2.197 h 75.286 c 4.142,0 7.5,-3.357 7.5,-7.5 0,-4.143 -3.358,-7.5 -7.5,-7.5 h -75.286 c -9.482,0 -17.197,7.715 -17.197,17.197 v 32.091 c 0,9.482 7.715,17.197 17.197,17.197 h 58.659 c 4.142,0 7.5,-3.357 7.5,-7.5 0,-4.143 -3.358,-7.5 -7.5,-7.5 z" />
      </g>
    </g>
    <path
       style="fill:#000000;stroke-width:0.99999994"
       d="m 146.40278,189.11814 v -6.37958 h -6.37957 -6.37958 V 169.9794 157.22025 h 6.37958 6.37957 v -6.37958 -6.37958 h -6.37957 -6.37958 V 112.5632 80.665324 h 44.65704 44.65705 v 6.37957 6.37958 h -6.37958 -6.37958 v 6.37958 6.379566 h 19.13874 19.13873 v 6.37958 6.37958 H 229.3373 210.19856 v 6.37958 6.37958 h 6.37958 6.37958 v 12.75915 12.75916 h 6.37958 6.37957 v -12.75916 -12.75915 h 6.37958 6.37958 v 31.89788 12.49698 l -11.63764,19.40091 H 216.57814 184.68025 V 182.73856 169.9794 h 6.37958 6.37958 v 6.37958 6.37958 h 19.13873 19.13873 v -6.37958 -6.37958 h -6.37957 -6.37958 v -6.37958 -6.37957 h -6.37958 -6.37958 v -12.75916 -12.75915 h -6.37958 -6.37957 v 12.75915 12.75916 h -6.37958 -6.37958 v -6.37958 -6.37958 h -6.37958 -6.37957 v 6.37958 6.37958 h -12.75916 -12.75916 v 12.75915 12.75916 h 12.75916 12.75916 v 6.37958 6.37957 H 159.16194 146.40278 Z M 184.68025,112.5632 V 93.424474 h -19.13873 -19.13874 v 19.138726 19.13874 h 19.13874 19.13873 z m -25.51831,0 v -6.37958 h 6.37958 6.37958 v 6.37958 6.37958 h -6.37958 -6.37958 z m 51.03662,0 v -6.37958 h -6.37958 -6.37957 v 6.37958 6.37958 h 6.37957 6.37958 z"
       id="path4555" />
  </g>
</svg>
