<?xml version="1.0" encoding="UTF-8" standalone="no"?>
<svg
   width="608"
   height="608"
   viewBox="-304 -304 608 608"
   version="1.1"
   id="svg6"
   sodipodi:docname="squircle2.svg"
   inkscape:version="1.2.2 (b0a8486541, 2022-12-01)"
   xmlns:inkscape="http://www.inkscape.org/namespaces/inkscape"
   xmlns:sodipodi="http://sodipodi.sourceforge.net/DTD/sodipodi-0.dtd"
   xmlns="http://www.w3.org/2000/svg"
   xmlns:svg="http://www.w3.org/2000/svg">
  <defs
     id="defs10">
    <filter
       inkscape:collect="always"
       style="color-interpolation-filters:sRGB"
       id="filter851"
       x="-0.04555012"
       y="-0.04555012"
       width="1.0911002"
       height="1.0911002">
      <feGaussianBlur
         inkscape:collect="always"
         stdDeviation="10.932029"
         id="feGaussianBlur853" />
    </filter>
  </defs>
  <sodipodi:namedview
     id="namedview8"
     pagecolor="#ffffff"
     bordercolor="#666666"
     borderopacity="1.0"
     inkscape:showpageshadow="2"
     inkscape:pageopacity="0.0"
     inkscape:pagecheckerboard="0"
     inkscape:deskcolor="#d1d1d1"
     showgrid="false"
     inkscape:zoom="1.6891447"
     inkscape:cx="169.31646"
     inkscape:cy="304.59202"
     inkscape:window-width="2476"
     inkscape:window-height="1363"
     inkscape:window-x="2644"
     inkscape:window-y="40"
     inkscape:window-maximized="1"
     inkscape:current-layer="svg6" />
  <title
     id="title2">Squircle: x to 4th plus y to 4th equals radius to 4th</title>
  <path
     fill="none"
     stroke="#000000"
     stroke-width="4.04"
     d="m 0,288 c 126.2,0 196.3563,0 242.1782,-45.8218 C 288,196.3563 288,126.2 288,0 288,-126.2 288,-196.3563 242.1782,-242.1782 196.3563,-288 126.2,-288 0,-288 c -126.2,0 -196.3563,0 -242.1782,45.8218 C -288,-196.3563 -288,-126.2 -288,0 c 0,126.2 0,196.3563 45.8218,242.1782 C -196.3563,288 -126.2,288 0,288 Z"
     id="path295"
     style="opacity:0.410535;mix-blend-mode:normal;fill:#000000;stroke:none;filter:url(#filter851)"
     transform="scale(0.95311886)" />
  <path
     fill="none"
     stroke="#000000"
     stroke-width="3.8506"
     d="M -3.7195486e-7,274.49823 C 120.2836,274.49823 187.15089,274.49823 230.82461,230.82461 274.49823,187.15089 274.49823,120.2836 274.49823,-3.719548e-7 274.49823,-120.2836 274.49823,-187.15089 230.82461,-230.82461 187.15089,-274.49823 120.2836,-274.49823 -3.7195486e-7,-274.49823 -120.2836,-274.49823 -187.15089,-274.49823 -230.82461,-230.82461 -274.49823,-187.15089 -274.49823,-120.2836 -274.49823,-3.719548e-7 -274.49823,120.2836 -274.49823,187.15089 -230.82461,230.82461 -187.15089,274.49823 -120.2836,274.49823 -3.7195486e-7,274.49823 Z"
     id="path4"
     style="fill:#ffffff;stroke:#999999" />
</svg>
