<?xml version="1.0" encoding="UTF-8" standalone="no"?>
<!-- Generator: Adobe Illustrator 16.0.3, SVG Export Plug-In . SVG Version: 6.00 Build 0)  -->

<svg
   version="1.1"
   id="Layer_1"
   x="0px"
   y="0px"
   width="729.012px"
   height="380px"
   viewBox="0 0 729.012 380"
   enable-background="new 0 0 729.012 380"
   xml:space="preserve"
   sodipodi:docname="iso-exit-right.svg"
   inkscape:version="1.2.2 (b0a8486541, 2022-12-01)"
   xmlns:inkscape="http://www.inkscape.org/namespaces/inkscape"
   xmlns:sodipodi="http://sodipodi.sourceforge.net/DTD/sodipodi-0.dtd"
   xmlns="http://www.w3.org/2000/svg"
   xmlns:svg="http://www.w3.org/2000/svg"><defs
   id="defs16" /><sodipodi:namedview
   id="namedview14"
   pagecolor="#ffffff"
   bordercolor="#000000"
   borderopacity="0.25"
   inkscape:showpageshadow="2"
   inkscape:pageopacity="0.0"
   inkscape:pagecheckerboard="0"
   inkscape:deskcolor="#d1d1d1"
   showgrid="false"
   inkscape:zoom="0.89134317"
   inkscape:cx="580.58447"
   inkscape:cy="44.876094"
   inkscape:window-width="1836"
   inkscape:window-height="1008"
   inkscape:window-x="0"
   inkscape:window-y="0"
   inkscape:window-maximized="1"
   inkscape:current-layer="Layer_1" />
<path
   fill="#FFFFFF"
   d="M696.69,16.909L696.69,16.909 M729.012,0H0v380h729.012V0L729.012,0z"
   id="path2" /><rect
   x="16.91"
   y="16.909"
   fill="#268053"
   width="695.19"
   height="346.181"
   id="rect4"
   style="fill:#666666" />

<path
   fill="#FFFFFF"
   d="M50.013,284.867v8.475l8.476-0.02l27.676-0.064v43.732l-20.879,20.547H274.08l20.879-20.547V41.032H86.164  v208.425C64.481,251.113,50.013,268.803,50.013,284.867z"
   id="path6" />
<path
   id="path1479-6-9"
   fill="#268053"
   d="M218.839,69.654c-13.734,0-24.288,10.554-24.288,24.361  c0,13.833,10.556,24.387,24.288,24.387c13.735,0,24.262-10.554,24.262-24.387C243.101,80.208,232.573,69.653,218.839,69.654z   M215.903,124.44v0.002c-23.99,0-71.901,0.076-71.901,0.076c-10.253,0.318-12.055,2.342-16.001,8.21l-22.437,37.529  c-6.834,14.596,13.557,24.632,21.104,10.871l18.297-32.053c0.346-0.592,0.862-0.738,1.526-0.715l25.278,0.295  c-6.908,14.743-13.814,29.467-20.715,44.262c-2.117,5.522-2.759,10.579-3.33,17.876c-0.912,14.697-1.728,29.49-2.586,44.188  c-0.272,1.949-0.912,3.256-3.255,3.256c-18.472-0.073-53.803-0.471-53.803-0.471c-18.346,0.713-29.614,15.732-29.614,27.103  l98.926-0.228c8.754-0.271,15.435-2.783,16.223-12.672l3.01-57.131c15.954,32.105,31.956,64.184,47.884,96.287  c3.971,6.977,8.68,14.771,19.973,14.523l21.602,0.072L207.2,206.822c-1.184-2.244,0.396-5.127,1.063-6.409  c5.918-12.549,11.514-23.6,17.457-36.595l21.424,25.326c3.533,3.531,4.601,4.404,9.539,4.499c0.118,0.008,0.234,0.012,0.355,0.015  c0.182,0.004,0.275,0.026,0.465,0.026c0.287,0,0.559-0.013,0.846-0.015h41.777c6.479,0,11.689-5.212,11.689-11.69  s-5.211-11.692-11.689-11.692h-19.889c-4.629-0.27-9.875-0.379-15.855-0.278c-3.23,0.027-3.994-0.666-5.35-2.293  c-9.766-11.514-20.713-24.684-30.723-37.036C224.587,126.711,223.697,124.267,215.903,124.44L215.903,124.44z"
   style="fill:#000000" />
<polygon
   fill="#268053"
   points="228.554,333.098 260.269,333.098 232.677,359.525 200.963,359.525 "
   id="polygon9"
   style="fill:#000000" />
<path
   fill="#FFFFFF"
   d="M553.194,308.144l117.691-117.689L552.283,71.853h-90.189l81.707,81.705H407.149v72.881H544.71  l-81.706,81.705H553.194L553.194,308.144z"
   id="path11" />
</svg>
